<svg width="406" height="319" viewBox="0 0 406 319" fill="none" xmlns="http://www.w3.org/2000/svg">
<path d="M369.566 291.213C361.783 299.552 352.865 306.753 343.075 312.602C342.85 312.74 342.622 312.87 342.393 313.004L326.544 298.965C326.71 298.811 326.894 298.637 327.093 298.446C338.902 287.224 397.53 208.761 401.437 189.654C401.167 191.245 404.962 253.67 369.566 291.213Z" fill="#F0F0F0"/>
<path d="M346.133 315.311C345.833 315.382 345.529 315.449 345.223 315.51L333.332 304.978C333.564 304.897 333.836 304.801 334.147 304.694C339.248 302.886 354.443 297.428 369.565 291.212C385.813 284.53 401.984 276.98 405.461 272.144C404.715 273.268 381.735 307.344 346.133 315.311Z" fill="#F0F0F0"/>
<path d="M369.346 83.5452H367.653V37.1221C367.653 33.5937 366.959 30.0999 365.609 26.84C364.26 23.5802 362.282 20.6183 359.789 18.1233C357.296 15.6283 354.337 13.6492 351.079 12.299C347.822 10.9487 344.331 10.2537 340.805 10.2537H242.525C238.999 10.2537 235.508 10.9487 232.251 12.2989C228.993 13.6492 226.034 15.6283 223.541 18.1233C221.048 20.6182 219.07 23.5801 217.721 26.84C216.371 30.0998 215.677 33.5936 215.677 37.1221V291.803C215.677 295.331 216.371 298.825 217.721 302.085C219.07 305.345 221.048 308.306 223.541 310.801C226.034 313.296 228.993 315.276 232.251 316.626C235.508 317.976 238.999 318.671 242.525 318.671H340.805C344.33 318.671 347.822 317.976 351.079 316.626C354.336 315.276 357.296 313.296 359.789 310.802C362.282 308.307 364.26 305.345 365.609 302.085C366.959 298.825 367.653 295.331 367.653 291.803V116.59H369.346V83.5452Z" fill="#3F3D56"/>
<path d="M361.938 37.3067V291.617C361.938 294.252 361.419 296.861 360.411 299.295C359.404 301.73 357.926 303.941 356.064 305.804C354.202 307.667 351.991 309.145 349.558 310.153C347.125 311.16 344.518 311.678 341.885 311.677H243.132C240.5 311.678 237.893 311.159 235.461 310.151C233.029 309.143 230.819 307.665 228.957 305.802C227.096 303.939 225.619 301.728 224.612 299.294C223.604 296.86 223.086 294.251 223.086 291.617V37.3067C223.086 34.6722 223.604 32.0635 224.612 29.6295C225.619 27.1955 227.096 24.9839 228.957 23.1211C230.819 21.2582 233.029 19.7805 235.461 18.7725C237.893 17.7644 240.5 17.2456 243.132 17.2458H255.116C254.528 18.6934 254.304 20.2634 254.465 21.8178C254.625 23.3722 255.164 24.8634 256.036 26.1602C256.907 27.457 258.083 28.5197 259.461 29.2548C260.839 29.9899 262.376 30.3749 263.938 30.3759H320.24C321.802 30.3774 323.341 29.994 324.72 29.2596C326.1 28.5252 327.277 27.4624 328.149 26.1648C329.021 24.8673 329.56 23.3749 329.719 21.8195C329.878 20.264 329.652 18.6933 329.062 17.2458H341.885C344.518 17.2449 347.125 17.7631 349.558 18.7708C351.991 19.7785 354.202 21.256 356.064 23.119C357.926 24.9819 359.404 27.1937 360.411 29.6281C361.419 32.0625 361.938 34.6717 361.938 37.3067Z" fill="white"/>
<path d="M331.22 169.46H244.419C242.898 169.458 241.441 168.853 240.366 167.777C239.291 166.701 238.686 165.242 238.684 163.721V160.864C238.686 159.343 239.291 157.884 240.366 156.808C241.441 155.733 242.898 155.127 244.419 155.126H331.22C332.74 155.127 334.197 155.733 335.272 156.808C336.348 157.884 336.952 159.343 336.954 160.864V163.721C336.952 165.242 336.348 166.701 335.272 167.777C334.197 168.853 332.74 169.458 331.22 169.46Z" fill="#F0F0F0"/>
<path d="M331.22 194.083H244.419C242.898 194.081 241.441 193.476 240.366 192.4C239.291 191.325 238.686 189.866 238.684 188.344V185.488C238.686 183.966 239.291 182.508 240.366 181.432C241.441 180.356 242.898 179.751 244.419 179.749H331.22C332.74 179.751 334.197 180.356 335.272 181.432C336.348 182.508 336.952 183.966 336.954 185.488V188.344C336.952 189.866 336.348 191.325 335.272 192.4C334.197 193.476 332.74 194.081 331.22 194.083Z" fill="#F0F0F0"/>
<path d="M335.562 163.953H248.761C247.164 163.951 245.634 163.315 244.505 162.186C243.376 161.056 242.741 159.525 242.74 157.927V155.07C242.741 153.473 243.376 151.941 244.505 150.812C245.634 149.682 247.164 149.047 248.761 149.045H335.562C337.158 149.047 338.688 149.682 339.817 150.812C340.946 151.941 341.581 153.473 341.583 155.07V157.927C341.581 159.525 340.946 161.056 339.817 162.186C338.688 163.315 337.158 163.951 335.562 163.953ZM248.761 150.192C247.469 150.194 246.23 150.708 245.316 151.623C244.402 152.537 243.888 153.777 243.887 155.07V157.927C243.888 159.22 244.402 160.46 245.316 161.375C246.23 162.289 247.469 162.803 248.761 162.805H335.562C336.854 162.803 338.093 162.289 339.007 161.375C339.92 160.46 340.434 159.22 340.436 157.927V155.07C340.434 153.777 339.92 152.537 339.007 151.623C338.093 150.708 336.854 150.194 335.562 150.192H248.761Z" fill="#3F3D56"/>
<path d="M335.562 188.576H248.761C247.164 188.574 245.634 187.939 244.505 186.809C243.376 185.68 242.741 184.148 242.74 182.55V179.694C242.741 178.096 243.376 176.565 244.505 175.435C245.634 174.305 247.164 173.67 248.761 173.668H335.562C337.158 173.67 338.688 174.305 339.817 175.435C340.946 176.565 341.581 178.096 341.583 179.694V182.55C341.581 184.148 340.946 185.68 339.817 186.809C338.688 187.939 337.158 188.574 335.562 188.576ZM248.761 174.816C247.469 174.817 246.23 175.332 245.316 176.246C244.402 177.161 243.888 178.401 243.887 179.694V182.55C243.888 183.844 244.402 185.084 245.316 185.998C246.23 186.913 247.469 187.427 248.761 187.428H335.562C336.854 187.427 338.093 186.913 339.007 185.998C339.92 185.084 340.434 183.844 340.436 182.55V179.694C340.434 178.401 339.92 177.161 339.007 176.246C338.093 175.332 336.854 174.817 335.562 174.816H248.761Z" fill="#3F3D56"/>
<path d="M361.938 37.3067V92.6227C353.155 94.9351 343.959 95.2004 335.058 93.3981C326.156 91.5959 317.787 87.7743 310.593 82.2271C303.399 76.68 297.572 69.5552 293.561 61.4011C289.551 53.2469 287.462 44.2806 287.457 35.192C287.457 33.5698 287.522 31.9644 287.653 30.3759H320.24C321.802 30.3774 323.341 29.994 324.72 29.2596C326.099 28.5252 327.277 27.4624 328.149 26.1648C329.021 24.8673 329.56 23.3749 329.719 21.8195C329.878 20.264 329.652 18.6933 329.062 17.2458H341.885C344.518 17.2449 347.125 17.7631 349.558 18.7708C351.991 19.7785 354.202 21.256 356.064 23.119C357.926 24.9819 359.404 27.1937 360.411 29.6281C361.419 32.0625 361.938 34.6717 361.938 37.3067Z" fill="#F0F0F0"/>
<path d="M272.984 308.223C272.984 309.389 272.94 310.54 272.846 311.677H243.132C240.5 311.678 237.893 311.159 235.461 310.151C233.029 309.143 230.819 307.665 228.957 305.802C227.096 303.939 225.619 301.728 224.612 299.294C223.604 296.86 223.086 294.251 223.086 291.617V264.415C229.315 263.604 235.644 264.131 241.653 265.961C247.662 267.791 253.212 270.882 257.934 275.027C262.655 279.172 266.44 284.277 269.035 290.001C271.63 295.725 272.976 301.937 272.984 308.223H272.984Z" fill="#03A167"/>
<path d="M33.3295 260.494C34.1644 260.861 35.1109 260.882 35.9614 260.553C36.8118 260.223 37.4968 259.569 37.866 258.734L64.6341 198.021C65.2468 196.632 65.434 195.092 65.172 193.596C64.9101 192.1 64.2108 190.715 63.1625 189.617C62.1143 188.519 60.7642 187.757 59.283 187.427C57.8018 187.097 56.256 187.213 54.8411 187.762H54.841C53.2064 188.387 51.8386 189.559 50.9702 191.08C50.8321 191.32 50.7068 191.568 50.5949 191.822L23.8269 252.534C23.6444 252.948 23.5452 253.394 23.5349 253.846C23.5245 254.298 23.6033 254.748 23.7666 255.169C23.93 255.591 24.1747 255.976 24.4868 256.303C24.799 256.63 25.1724 256.892 25.5858 257.075L33.3295 260.494Z" fill="#03A167"/>
<path d="M63.5352 222.946L37.0581 217.058L43.6115 199.708C44.7279 195.468 47.326 191.768 50.9345 189.281C54.5431 186.793 58.9231 185.682 63.2801 186.149L63.5352 186.177L63.5352 222.946Z" fill="#2F2E41"/>
<path d="M117.015 261.362C116.236 261.361 115.474 261.134 114.822 260.708C114.169 260.283 113.654 259.678 113.338 258.965L86.5697 198.253C85.7184 196.321 85.6393 194.136 86.3486 192.148C87.0579 190.159 88.5017 188.519 90.3829 187.563C92.2642 186.608 94.4398 186.41 96.4622 187.011C98.4846 187.612 100.2 188.966 101.255 190.794V190.794C101.404 191.052 101.538 191.318 101.658 191.59L128.426 252.303C128.856 253.278 128.881 254.383 128.496 255.377C128.112 256.37 127.348 257.17 126.374 257.6L118.368 261.135L118.364 261.126C117.931 261.282 117.475 261.362 117.015 261.362Z" fill="#03A167"/>
<path d="M79.9874 240.514C79.0752 240.515 78.2007 240.878 77.5556 241.523C76.9106 242.169 76.5478 243.044 76.5468 243.957V314.552C76.5478 315.465 76.9106 316.34 77.5556 316.986C78.2007 317.631 79.0752 317.994 79.9874 317.995H88.4512C89.3634 317.994 90.238 317.631 90.883 316.986C91.5281 316.34 91.8909 315.465 91.8919 314.552V243.957C91.8909 243.044 91.5281 242.169 90.883 241.523C90.238 240.878 89.3634 240.515 88.4512 240.514H79.9874Z" fill="#03A167"/>
<path d="M63.2472 240.514C62.335 240.515 61.4604 240.878 60.8154 241.523C60.1703 242.169 59.8075 243.044 59.8065 243.957V314.552C59.8075 315.465 60.1703 316.34 60.8154 316.986C61.4604 317.631 62.335 317.994 63.2472 317.995H71.7111C72.6233 317.994 73.4979 317.631 74.1429 316.986C74.7879 316.34 75.1507 315.465 75.1518 314.552V243.957C75.1507 243.044 74.7879 242.169 74.1429 241.523C73.4979 240.878 72.6233 240.515 71.7111 240.514H63.2472Z" fill="#03A167"/>
<path d="M75.5964 166.553C91.7483 166.553 104.842 153.45 104.842 137.285C104.842 121.121 91.7483 108.018 75.5964 108.018C59.4444 108.018 46.3506 121.121 46.3506 137.285C46.3506 153.45 59.4444 166.553 75.5964 166.553Z" fill="#03A167"/>
<path d="M85.3288 149.571C87.2245 149.519 89.5839 149.453 91.4016 148.124C91.9428 147.712 92.3875 147.187 92.7045 146.585C93.0215 145.983 93.2031 145.319 93.2367 144.639C93.2695 144.156 93.1903 143.672 93.0053 143.225C92.8202 142.777 92.5343 142.379 92.1698 142.061C91.2205 141.258 89.8342 141.07 88.3402 141.509L89.8881 130.189L88.7518 130.033L86.9322 143.341L87.881 142.905C88.9811 142.401 90.4911 142.144 91.4295 142.937C91.6599 143.145 91.8395 143.402 91.9541 143.691C92.0687 143.979 92.1154 144.29 92.0905 144.599C92.0627 145.105 91.9263 145.599 91.6907 146.047C91.4551 146.495 91.1257 146.888 90.725 147.197C89.3105 148.231 87.4299 148.365 85.2969 148.424L85.3288 149.571Z" fill="#2F2E41"/>
<path d="M101.684 131.165H95.5074V132.313H101.684V131.165Z" fill="#2F2E41"/>
<path d="M82.1871 131.165H76.0102V132.313H82.1871V131.165Z" fill="#2F2E41"/>
<path d="M104.575 261.719L94.0484 184.819C93.9356 183.995 93.528 183.239 92.9013 182.692C92.2746 182.145 91.4711 181.843 90.6394 181.843H82.6941C82.7272 181.654 82.7444 181.462 82.7456 181.269V178.4C82.7456 177.487 82.3831 176.611 81.7378 175.965C81.0926 175.319 80.2174 174.957 79.3049 174.957H72.4236C71.511 174.957 70.6359 175.319 69.9907 175.965C69.3454 176.611 68.9829 177.487 68.9829 178.4V181.269C68.9841 181.462 69.0013 181.654 69.0344 181.843H61.089C60.2574 181.843 59.4539 182.145 58.8272 182.692C58.2004 183.239 57.7929 183.995 57.68 184.819L47.1538 261.719C47.0871 262.206 47.1255 262.702 47.2662 263.173C47.407 263.644 47.6469 264.079 47.9698 264.45C48.2928 264.82 48.6913 265.117 49.1385 265.321C49.5857 265.524 50.0713 265.629 50.5626 265.629H101.166C101.657 265.629 102.143 265.524 102.59 265.321C103.037 265.117 103.436 264.82 103.759 264.45C104.082 264.079 104.321 263.644 104.462 263.173C104.603 262.702 104.641 262.206 104.575 261.719Z" fill="#2F2E41"/>
<path d="M88.1933 222.946V186.177L88.4484 186.149C92.8107 185.682 97.1956 186.797 100.806 189.291C104.417 191.784 107.015 195.491 108.126 199.739L114.67 217.058L88.1933 222.946Z" fill="#2F2E41"/>
<path d="M74.1236 167.466L53.895 159.609C50.5872 158.324 47.261 157.078 43.9707 155.749C42.5613 155.258 41.263 154.492 40.1507 153.496C39.1822 152.47 38.5222 151.192 38.2462 149.808C37.5446 146.84 37.6714 143.596 37.7215 140.567C37.7603 137.254 38.0327 133.948 38.5368 130.673C39.4201 124.519 41.4947 118.597 44.6441 113.238C50.3171 103.923 60.0912 96.9151 71.334 97.4744C76.539 97.7334 81.7739 99.6025 85.6411 103.164C86.0445 103.646 86.4971 104.085 86.9916 104.474C87.3353 104.603 87.7093 104.628 88.0672 104.546C88.5391 104.516 89.0114 104.492 89.4841 104.476C91.1243 104.407 92.7674 104.476 94.396 104.683C97.3639 105.003 100.177 106.172 102.499 108.05C104.432 109.713 106.004 112.062 106.166 114.672C106.244 115.87 106.046 117.071 105.587 118.18C105.128 119.289 104.421 120.279 103.52 121.071C101.106 123.107 97.6632 122.391 94.7683 122.238L84.1631 121.676L78.7898 121.391C77.6834 121.332 77.6866 123.054 78.7898 123.112L93.0714 123.87C95.3665 123.991 97.7318 124.289 100.029 124.152C101.794 124.072 103.479 123.393 104.807 122.228C106.021 121.112 106.925 119.701 107.431 118.132C107.937 116.563 108.028 114.89 107.696 113.275C106.959 109.752 104.34 106.839 101.269 105.105C97.091 102.747 92.1009 102.521 87.4257 102.87L88.034 103.122C82.7455 97.4414 74.6448 95.0431 67.04 95.8824C59.0104 96.7685 51.8688 101.251 46.7376 107.381C41.0167 114.216 37.8991 122.738 36.6871 131.501C36.0564 136.233 35.8487 141.011 36.0666 145.779C36.0577 147.882 36.4172 149.971 37.1288 151.949C37.9408 153.875 39.4089 155.45 41.272 156.395C43.4081 157.427 45.6041 158.329 47.8482 159.098L55.3009 161.993L69.94 167.679L73.6663 169.127C74.699 169.528 75.1464 167.864 74.1236 167.466Z" fill="#2F2E41"/>
<path d="M42.3176 108.961C40.5597 108.961 38.8412 108.439 37.3795 107.462C35.9178 106.484 34.7786 105.095 34.1058 103.47C33.4331 101.844 33.257 100.056 33.6 98.3303C33.943 96.6048 34.7895 95.0198 36.0326 93.7758C37.2756 92.5318 38.8594 91.6846 40.5836 91.3414C42.3078 90.9982 44.0949 91.1744 45.7191 91.8476C47.3432 92.5209 48.7314 93.661 49.7081 95.1238C50.6848 96.5866 51.2061 98.3063 51.2061 100.066C51.2034 102.424 50.2661 104.685 48.5998 106.352C46.9334 108.02 44.6742 108.958 42.3176 108.961ZM42.3176 92.8921C40.8999 92.8921 39.514 93.3129 38.3353 94.1011C37.1565 94.8893 36.2377 96.0097 35.6952 97.3204C35.1527 98.6312 35.0107 100.074 35.2873 101.465C35.5639 102.857 36.2466 104.135 37.249 105.138C38.2515 106.141 39.5287 106.824 40.9192 107.101C42.3097 107.378 43.7509 107.236 45.0607 106.693C46.3705 106.15 47.49 105.231 48.2777 104.051C49.0653 102.871 49.4857 101.484 49.4857 100.066C49.4836 98.1637 48.7277 96.3404 47.3839 94.9956C46.0401 93.6507 44.2181 92.8943 42.3176 92.8921Z" fill="#2F2E41"/>
<path d="M190.9 164.085L171.661 149.359L156.947 168.612L176.186 183.338L190.9 164.085Z" fill="#F0F0F0"/>
<path d="M82.1721 32.635C85.2118 32.6326 88.2099 33.3425 90.9261 34.708C93.6424 36.0735 96.0014 38.0565 97.8142 40.4983L109.048 25.7992L75.3415 0L49.5619 33.732L64.0893 44.8513C65.543 41.2431 68.0414 38.1521 71.2636 35.9752C74.4857 33.7984 78.2845 32.6352 82.1721 32.635Z" fill="#F0F0F0"/>
<path d="M405.427 319H0.573446C0.421359 319 0.2755 318.94 0.167958 318.832C0.0604161 318.724 0 318.578 0 318.426C0 318.274 0.0604161 318.128 0.167958 318.02C0.2755 317.913 0.421359 317.852 0.573446 317.852H405.427C405.579 317.852 405.724 317.913 405.832 318.02C405.94 318.128 406 318.274 406 318.426C406 318.578 405.94 318.724 405.832 318.832C405.724 318.94 405.579 319 405.427 319Z" fill="#3F3D56"/>
<path d="M306.615 223.776H265.405C263.885 223.774 262.428 223.169 261.352 222.093C260.277 221.017 259.673 219.559 259.671 218.037V215.181C259.673 213.659 260.277 212.201 261.352 211.125C262.428 210.049 263.885 209.444 265.405 209.442H306.615C308.135 209.444 309.592 210.049 310.667 211.125C311.743 212.201 312.347 213.659 312.349 215.181V218.037C312.347 219.559 311.743 221.017 310.667 222.093C309.592 223.169 308.135 223.774 306.615 223.776Z" fill="#03A167"/>
<path d="M310.957 218.269H269.747C268.151 218.267 266.621 217.632 265.492 216.502C264.363 215.373 263.728 213.841 263.726 212.244V209.387C263.728 207.79 264.363 206.258 265.492 205.128C266.621 203.999 268.151 203.363 269.747 203.361H310.957C312.553 203.363 314.083 203.999 315.212 205.128C316.341 206.258 316.976 207.79 316.978 209.387V212.244C316.976 213.841 316.341 215.373 315.212 216.502C314.083 217.632 312.553 218.267 310.957 218.269ZM269.747 204.509C268.455 204.511 267.216 205.025 266.302 205.939C265.389 206.854 264.875 208.094 264.873 209.387V212.244C264.875 213.537 265.389 214.777 266.302 215.691C267.216 216.606 268.455 217.12 269.747 217.122H310.957C312.249 217.12 313.488 216.606 314.402 215.691C315.316 214.777 315.83 213.537 315.831 212.244V209.387C315.83 208.094 315.316 206.854 314.402 205.939C313.488 205.025 312.249 204.511 310.957 204.509H269.747Z" fill="#3F3D56"/>
</svg>
