<svg width="360" height="216" viewBox="0 0 360 216" fill="none" xmlns="http://www.w3.org/2000/svg">
<path d="M18.7827 215.517C18.7586 215.411 16.4294 204.812 21.1862 196.009C25.943 187.206 36.0967 183.324 36.1987 183.285L36.6627 183.112L36.7724 183.594C36.7964 183.7 39.1256 194.299 34.3689 203.103C29.6123 211.906 19.4584 215.788 19.3564 215.826L18.8921 216L18.7827 215.517ZM36.0263 184.29C33.9925 185.163 25.9653 188.984 21.9479 196.419C17.93 203.854 19.1422 212.648 19.5287 214.822C21.5618 213.951 29.5857 210.136 33.6072 202.693C37.6249 195.258 36.4131 186.465 36.0263 184.29V184.29Z" fill="#F1F1F1"/>
<path d="M30.7338 200.015C22.1856 205.147 18.8935 215.341 18.8935 215.341C18.8935 215.341 29.4606 217.214 38.0087 212.082C46.5568 206.95 49.849 196.756 49.849 196.756C49.849 196.756 39.2819 194.883 30.7338 200.015Z" fill="#F1F1F1"/>
<path d="M160.184 117.741C160.315 117.069 160.296 116.378 160.129 115.714C159.963 115.051 159.652 114.432 159.22 113.901C158.788 113.37 158.244 112.94 157.628 112.642C157.011 112.343 156.336 112.184 155.651 112.173L151.693 102.239L145.056 103.167L150.844 117.118C150.903 118.268 151.383 119.356 152.193 120.177C153.003 120.997 154.086 121.493 155.237 121.57C156.388 121.647 157.528 121.299 158.44 120.593C159.352 119.888 159.972 118.873 160.184 117.741Z" fill="#9F616A"/>
<path d="M147.958 114.25L145.902 109.357L133.088 85.0161L133.785 39.9767L133.919 39.959C142.118 38.8779 147.665 76.5788 147.898 78.1844L155.994 105.816L157.921 111.907L147.958 114.25Z" fill="#03A167"/>
<path d="M128.269 209.223L134.499 209.223L137.463 185.242L128.268 185.242L128.269 209.223Z" fill="#9F616A"/>
<path d="M126.68 207.193L138.949 207.193H138.95C141.024 207.193 143.012 208.015 144.479 209.478C145.945 210.942 146.769 212.926 146.769 214.996V215.249L126.68 215.25L126.68 207.193Z" fill="#2F2E41"/>
<path d="M70.9851 199.751L76.0969 203.305L92.2678 185.322L84.7235 180.075L70.9851 199.751Z" fill="#9F616A"/>
<path d="M70.8443 197.179L80.9108 204.179L80.9112 204.179C82.6125 205.362 83.7731 207.171 84.1377 209.209C84.5024 211.246 84.0413 213.344 82.8558 215.042L82.7105 215.25L66.2288 203.789L70.8443 197.179Z" fill="#2F2E41"/>
<path d="M124.845 203.586L124.576 158.6L120.656 130.313L113.347 155.188L113.333 155.209L86.8482 193.58L76.5426 188.369L76.5991 188.235C77.2289 186.74 92.0693 151.631 96.0582 151.631C96.4065 151.655 96.7556 151.594 97.0753 151.454C97.395 151.314 97.6758 151.098 97.8934 150.826C99.0642 149.266 98.1107 145.955 98.101 145.922C96.9591 141.197 99.8302 139.587 100.402 139.319L101.94 107.634L102.1 107.645L143.796 110.563L142.047 150.178L138.284 202.081L138.155 202.096L124.845 203.586Z" fill="#2F2E41"/>
<path d="M144.433 117.584L144.253 117.57L99.4092 113.962L99.5199 99.1554L101.715 60.4938L101.727 60.4669L110.666 41.1018L117.002 38.2386L126.246 37.7531L126.269 37.7588L134.705 39.8446L143.482 102.716L144.433 117.584Z" fill="#03A167"/>
<path d="M127.695 32.7901C133.417 29.6688 135.519 22.5098 132.392 16.7999C129.264 11.0901 122.09 8.99163 116.368 12.1129C110.647 15.2342 108.544 22.3933 111.672 28.1031C114.799 33.813 121.973 35.9114 127.695 32.7901Z" fill="#9F616A"/>
<path d="M110.158 25.4092V20.8185C110.158 20.8185 106.448 16.4582 110.529 15.3599C110.529 15.3599 111.641 4.37637 121.287 9.502C121.287 9.502 134.642 7.30531 133.158 14.9937C133.158 14.9937 136.497 12.9865 135.384 18.1122L133.232 26.3687C133.232 26.3687 134.271 20.9147 130.933 20.1824L129.078 19.0841C129.078 19.0841 123.884 24.2097 116.093 17.9857C116.093 17.9857 112.754 17.1905 113.125 20.4855C113.496 23.7806 110.158 25.4092 110.158 25.4092Z" fill="#2F2E41"/>
<path d="M120.802 106.527C120.81 105.843 120.667 105.166 120.384 104.543C120.1 103.92 119.684 103.367 119.163 102.922C118.643 102.477 118.031 102.152 117.37 101.969C116.71 101.785 116.017 101.749 115.341 101.862L109.661 92.7975L103.299 94.899L111.501 107.587C111.767 108.708 112.434 109.692 113.379 110.355C114.323 111.017 115.477 111.31 116.624 111.18C117.77 111.049 118.829 110.503 119.599 109.646C120.369 108.788 120.797 107.678 120.802 106.527Z" fill="#9F616A"/>
<path d="M106.13 103.67L95.853 82.8471L95.8621 82.7965C95.9035 82.566 100.04 59.6432 103.204 51.2175C106.388 42.7385 110.747 41.0361 110.931 40.9678L111.023 40.9336L114.931 44.6743L109.517 80.7323L115.352 98.1225L106.13 103.67Z" fill="#03A167"/>
<path d="M360 0H340.101V19.8579H360V0Z" fill="#F1F1F1"/>
<path d="M204.269 77.2729H184.37V97.1308H204.269V77.2729Z" fill="#F1F1F1"/>
<path d="M195.539 88.429H352.86V8.95068H195.539V88.429Z" fill="white"/>
<path d="M354.157 89.7241H194.241V7.65552H354.157V89.7241ZM196.837 87.1339H351.562V10.2457H196.837V87.1339Z" fill="#E5E5E5"/>
<path d="M335.463 36.8302H214.423V40.8359H335.463V36.8302Z" fill="#E5E5E5"/>
<path d="M335.463 46.5447H214.423V50.5504H335.463V46.5447Z" fill="#E5E5E5"/>
<path d="M335.463 60.8883H312.969V64.3646H335.463V60.8883Z" fill="#03A167"/>
<path d="M165.248 215.983H0.432591C0.317862 215.983 0.207832 215.937 0.126707 215.856C0.0455812 215.775 5.72205e-06 215.665 5.72205e-06 215.551C5.72205e-06 215.436 0.0455812 215.327 0.126707 215.246C0.207832 215.165 0.317862 215.119 0.432591 215.119H165.248C165.362 215.119 165.472 215.165 165.553 215.246C165.635 215.327 165.68 215.436 165.68 215.551C165.68 215.665 165.635 215.775 165.553 215.856C165.472 215.937 165.362 215.983 165.248 215.983Z" fill="#CBCBCB"/>
</svg>
